<svg width="278" height="278" viewBox="0 0 278 278" fill="none" xmlns="http://www.w3.org/2000/svg">
<path fill-rule="evenodd" clip-rule="evenodd" d="M67.9166 167.279C40.4755 125.563 66.8292 64.6064 119.247 59.5007C130.314 58.4236 142.093 60.7733 152.809 64.3029L160.048 132.18C147.715 126.743 127.841 120.025 110.033 119.958C86.561 119.871 80.1536 134.163 83.4345 150.631C87.7479 172.266 103.147 188.823 122.735 198.111C100.623 191.043 83.8924 171.1 79.591 151.522C76.1918 136.046 81.1226 119.919 99.5767 115.866C111.651 113.213 127.601 115.343 139.845 117.852C139.263 116.23 140.774 112.337 144.58 111.495L141.682 83.3915C138.893 81.8051 137.145 80.8069 136.854 77.478C98.9798 69.1548 61.9396 98.4978 64.8054 137.956C66.7658 164.941 87.3517 191.374 122.697 198.315C102.561 196.684 80.8962 187.011 67.9166 167.279Z" fill="white"/>
<path fill-rule="evenodd" clip-rule="evenodd" d="M111.91 89.8161C109.275 91.6392 108.651 94.2033 108.651 96.8942L105.958 97.3024L106.555 101.232L109.25 100.823C110.227 104.346 112.627 107.655 116.681 107.039C121.816 106.26 121.933 101.813 121.758 97.3127C121.662 94.3833 122.015 91.7044 124.056 91.394C126.471 91.0287 127.819 93.4521 128.241 96.2356C128.63 98.8082 127.779 101.75 125.925 102.885L128.024 106.301C131.208 104.331 132.298 100.873 132.082 97.3624L135.022 96.9165L134.427 92.9873L131.34 93.4555C130.482 89.6618 127.597 86.5232 123.421 87.1561C117.976 87.981 117.904 92.929 118.031 97.5305C118.115 100.177 118.115 102.676 116.072 102.986C113.908 103.315 112.814 101.076 112.419 98.5081C112.095 96.3728 112.762 93.9288 113.978 92.9238L111.92 89.8161H111.91Z" fill="white"/>
<path fill-rule="evenodd" clip-rule="evenodd" d="M158.158 66.8652C187.18 82.6953 202.479 110.057 195.747 144.47C192.134 162.94 179.939 178.475 164.437 188.673L173.479 201.23C150.449 200.796 126.772 198.16 107.427 184.152C123.603 182.313 136.881 176.362 146.358 162.679L151.255 169.711C163.029 161.727 171.87 151.457 177.513 138.325C189.69 109.961 178.801 80.9494 158.162 66.8618L158.158 66.8652Z" fill="white"/>
<path fill-rule="evenodd" clip-rule="evenodd" d="M157.158 136.241L158.216 147.78C139.263 132.905 109.778 124.74 92.1264 124.972C114.275 118.465 139.896 127.92 157.158 136.241Z" fill="white"/>
<path fill-rule="evenodd" clip-rule="evenodd" d="M146.53 145.727L147.425 158.642C133.947 142.757 111.779 129.537 89.0444 127.012C97.0195 125.354 111.45 129.062 119.048 131.815C128.899 135.394 138.771 140.289 146.53 145.719V145.727Z" fill="white"/>
</svg>
